<svg width="30" height="36" viewBox="0 0 30 36" fill="none" xmlns="http://www.w3.org/2000/svg">
<path fill-rule="evenodd" clip-rule="evenodd" d="M0.00431319 10.067C0.00450072 9.23889 0.57891 8.22228 1.28965 7.79471L13.7149 0.32007C14.4247 -0.10694 15.5743 -0.10694 16.2854 0.32157L28.715 7.81046C29.425 8.23803 30.0002 9.25502 30 10.0867L29.9947 25.0148C29.9946 25.8442 29.4192 26.8648 28.7105 27.2941L16.2584 34.8338C15.5494 35.2632 14.4013 35.263 13.6911 34.8319L1.28272 27.2959C0.573847 26.8655 -0.00037488 25.8457 1.8363e-07 25.0172L0.00431319 10.0672V10.067ZM2.61775 8.85295L14.9637 15.7464L26.7343 8.94315L14.9438 2.01986L2.61757 8.85295H2.61775ZM1.82149 11.084C1.82149 11.3893 1.62177 24.56 1.62177 24.56C1.6154 24.9737 1.89688 25.4821 2.25319 25.6972L13.8074 32.67L13.9137 18.1526C13.9137 18.1526 1.82168 10.7785 1.82168 11.084H1.82149ZM16.094 32.6385L27.5169 25.3885C27.9542 25.111 28.3088 24.4668 28.3088 23.9485V11.0099L16.094 18.0448V32.6385Z" fill="#2A5F9E"/>
<path fill-rule="evenodd" clip-rule="evenodd" d="M5.60487 18.3537C4.7081 18.8716 3.51915 18.4915 2.94942 17.5049C2.37989 16.5183 2.64525 15.2986 3.54203 14.7808C4.43899 14.2629 5.62794 14.643 6.19747 15.6296C6.76719 16.6162 6.50184 17.8359 5.60487 18.3537ZM11.6059 22.2918C10.7091 22.8098 9.52016 22.4297 8.95044 21.4431C8.3809 20.4565 8.64626 19.2368 9.54304 18.719C10.44 18.201 11.629 18.5811 12.1985 19.5677C12.7682 20.5543 12.5028 21.7741 11.6059 22.2918ZM5.60487 25.2923C4.7081 25.8103 3.51915 25.4302 2.94942 24.4436C2.37989 23.457 2.64525 22.2373 3.54203 21.7195C4.43899 21.2015 5.62794 21.5816 6.19747 22.5683C6.76719 23.5549 6.50184 24.7746 5.60487 25.2923ZM11.6059 29.2305C10.7091 29.7485 9.52016 29.3683 8.95044 28.3817C8.3809 27.3951 8.64626 26.1754 9.54304 25.6576C10.44 25.1397 11.629 25.5198 12.1985 26.5064C12.7682 27.493 12.5028 28.7127 11.6059 29.2305ZM26.278 14.5933C25.381 14.0753 24.1923 14.4554 23.6225 15.442C23.053 16.4287 23.3182 17.6484 24.2151 18.1661C25.1121 18.6841 26.3011 18.304 26.8706 17.3174C27.4403 16.3308 27.1749 15.1111 26.278 14.5933ZM23.2328 20.0317C22.3361 19.5137 21.1471 19.8939 20.5774 20.8805C20.0079 21.8671 20.2732 23.0868 21.17 23.6046C22.067 24.1225 23.2559 23.7424 23.8254 22.7558C24.3952 21.7692 24.1298 20.5495 23.2328 20.0317ZM20.0448 25.2826C19.148 24.7646 17.9591 25.1447 17.3894 26.1314C16.8198 27.118 17.0852 28.3377 17.982 28.8554C18.8789 29.3734 20.0679 28.9933 20.6374 28.0067C21.2071 27.0201 20.9418 25.8004 20.0448 25.2826ZM15.1202 6.48535C13.9292 6.48535 12.9636 7.40894 12.9636 8.5482C12.9636 9.68745 13.9292 10.611 15.1202 10.611C16.3112 10.611 17.2768 9.68745 17.2768 8.5482C17.2768 7.40894 16.3112 6.48535 15.1202 6.48535Z" fill="#2A5F9E"/>
</svg>
