<svg width="16" height="16" viewBox="0 0 16 16" fill="none" xmlns="http://www.w3.org/2000/svg">
<g clip-path="url(#clip0_601_275)">
<path d="M7.86764 0.791406C3.83079 0.791406 0.546777 4.07542 0.546777 8.11228C0.546777 12.1491 3.83079 15.4331 7.86764 15.4331C11.9045 15.4331 15.1885 12.1491 15.1885 8.11228C15.1885 4.07542 11.9045 0.791406 7.86764 0.791406ZM7.86764 13.699C4.78742 13.699 2.28095 11.1925 2.28095 8.11228C2.28095 5.03205 4.78742 2.52558 7.86764 2.52558C10.9479 2.52558 13.4543 5.03205 13.4543 8.11228C13.4543 11.1925 10.9479 13.699 7.86764 13.699Z" fill="#D6D6D6" stroke="#D6D6D6" stroke-width="0.3"/>
<path d="M7.15039 7.2952H7.05039V7.3952V11.6977V11.7977H7.15039H8.58456H8.68456V11.6977V7.3952V7.2952H8.58456H7.15039ZM7.15039 4.42686H7.05039V4.52686V5.96103V6.06103H7.15039H8.58456H8.68456V5.96103V4.52686V4.42686H8.58456H7.15039Z" fill="#D6D6D6" stroke="#D6D6D6" stroke-width="0.2"/>
</g>
<defs>
<clipPath id="clip0_601_275">
<rect width="16" height="16" fill="white"/>
</clipPath>
</defs>
</svg>
