<svg width="18" height="21" viewBox="0 0 18 21" fill="none" xmlns="http://www.w3.org/2000/svg">
<path d="M17.8325 8.47989C16.6336 7.24399 15.0979 6.38781 13.4163 6.01786C12.1817 5.70757 10.9156 5.53934 9.64286 5.51646V2.10946C9.62272 1.53198 9.37472 0.985969 8.9531 0.590845C8.53147 0.195721 7.97053 -0.0163599 7.39296 0.000986113C6.81538 -0.0163599 6.25444 0.195721 5.83282 0.590845C5.41119 0.985969 5.16319 1.53198 5.14306 2.10946V8.53775L4.11453 7.52208C3.66146 7.07765 3.05212 6.82869 2.41746 6.82869C1.78281 6.82869 1.17347 7.07765 0.720398 7.52208C0.493397 7.74139 0.312713 8.00402 0.189045 8.29442C0.0653764 8.58482 0.00123855 8.89708 0.000429634 9.21272C-0.011357 9.82469 0.219783 10.4164 0.643258 10.8584L3.63884 14.4068C3.78336 15.3134 4.09506 16.1853 4.55808 16.9781C4.89637 17.5877 5.33046 18.139 5.84374 18.6109V19.8451C5.84172 20.0211 5.90724 20.1912 6.02682 20.3203C6.1464 20.4495 6.31094 20.5279 6.48657 20.5394H15.4283C15.6039 20.5279 15.7685 20.4495 15.8881 20.3203C16.0076 20.1912 16.0732 20.0211 16.0711 19.8451V18.1095C17.3343 16.6054 18.0183 14.6994 17.9996 12.7354V8.87845C17.9916 8.73029 17.9325 8.58948 17.8325 8.47989ZM16.714 12.7676C16.755 14.4767 16.1594 16.14 15.0426 17.4345C14.9007 17.5501 14.8087 17.7158 14.7855 17.8973V19.2858H7.16154V18.3345C7.1617 18.2292 7.13599 18.1254 7.08667 18.0324C7.03735 17.9394 6.96593 17.8599 6.8787 17.8009C6.39695 17.4059 5.99915 16.9185 5.70875 16.3674C5.29926 15.674 5.0367 14.9038 4.93735 14.1046C4.93046 13.9655 4.87857 13.8324 4.7895 13.7254L1.62679 9.98411C1.52378 9.88246 1.44198 9.76135 1.38616 9.62782C1.33033 9.4943 1.30159 9.35102 1.30159 9.20629C1.30159 9.06157 1.33033 8.91828 1.38616 8.78476C1.44198 8.65123 1.52378 8.53013 1.62679 8.42847C1.83844 8.22001 2.1236 8.10316 2.42068 8.10316C2.71776 8.10316 3.00291 8.22001 3.21457 8.42847L5.14306 10.357V12.3754L6.42871 11.7326V2.10946C6.45158 1.87414 6.56487 1.65687 6.74472 1.50339C6.92458 1.34992 7.15696 1.27221 7.39296 1.28664C7.62895 1.27221 7.86134 1.34992 8.04119 1.50339C8.22104 1.65687 8.33433 1.87414 8.3572 2.10946V9.69484L9.64286 9.97126V6.80854C10.1823 6.81918 10.7209 6.8578 11.2564 6.92425V10.2862L12.2849 10.5112V7.0721C12.5484 7.12353 12.8184 7.18138 13.0948 7.25209C13.4281 7.3393 13.7564 7.44445 14.0784 7.56708V10.8776L15.1069 11.1026V8.03634C15.6912 8.3313 16.232 8.70553 16.714 9.14844V12.7676Z" fill="#313131"/>
</svg>
